<svg id="Capa_1" data-name="Capa 1" xmlns="http://www.w3.org/2000/svg" viewBox="0 0 252.66 201"><defs><style>.cls-1{fill:#262626;}</style></defs><title>Logo</title><path class="cls-1" d="M1276.13,417.71l-.41.06a3.86,3.86,0,0,0-3.06,2.59h0a28.43,28.43,0,0,0-1.31,11.87l0,.23.17,3.49a3.42,3.42,0,0,0,3.18,3.25l20.58,1.41q16.92,1.16,33.88.86l17.58-.31a2.56,2.56,0,0,1,2.6,2.34l.93,10.68.68,6.15a66.64,66.64,0,0,1,.3,11l-.06,1.08a3.42,3.42,0,0,0,2.67,3.53l2.94.65,1.21.43a6.85,6.85,0,0,0,4.82-.1,4.09,4.09,0,0,1,1.7-.29l8.31.36a5.24,5.24,0,0,0,3-.78h0a5.24,5.24,0,0,0,2.48-4.45h0a5.32,5.32,0,0,0-.06-.78l-.54-3.58a137.63,137.63,0,0,1-1.51-19.35l0-3.19a4.42,4.42,0,0,1,.69-2.41,2.57,2.57,0,0,1,2.28-1.19l26.87,1.17q15.81.69,31.64-.11l17.74-.9a12.84,12.84,0,0,0,7.62-3l1.45-1.22a5.14,5.14,0,0,0,1.71-2.85l.74-3.45a14,14,0,0,0,.3-3.61l0-.63a14,14,0,0,0-2.89-7.88h0a6,6,0,0,0-4.2-2.31l-3.82-.35a28.08,28.08,0,0,0-3.43-.11l-60.66,1.8q-20.62.61-41.24-.2L1308.91,416h-10.72a142.91,142.91,0,0,0-22.06,1.71" transform="translate(-1261.34 -416)"/><path class="cls-1" d="M1513.61,525.13l-.34-1.75a20.65,20.65,0,0,1-.39-3.83l-.07-9.7a20.64,20.64,0,0,0-.44-4.08l-1.83-8.75a6.84,6.84,0,0,0-4.15-5l-8.32-3.33a18,18,0,0,0-7.61-1.26L1440.93,490q-12.76.66-25.54.38l-61.92-1.36a2.37,2.37,0,0,0-2.41,2.55l.37,4.89a119,119,0,0,1-.44,22.64l-.13,1.09a20.53,20.53,0,0,0,0,4.55l-.2,9.75c0,.73,0,1.46.06,2.19a68.18,68.18,0,0,1-.59,15.23l-.27,1.71-.06,1.16a76.2,76.2,0,0,0,1.44,18.93,1.79,1.79,0,0,0,1.39,1.39l4.13.85a7.39,7.39,0,0,0,3,0,7.38,7.38,0,0,1,4.14.33h0a1.25,1.25,0,0,0,1.1-.1l2.91-1.79a1.71,1.71,0,0,0,.81-1.38l.12-2.56a15.28,15.28,0,0,0-.33-4,15.23,15.23,0,0,1-.22-5.25l.36-2.69a23.11,23.11,0,0,0,.12-5h0a2.46,2.46,0,0,1,2.91-2.62,40,40,0,0,0,6.16.69l6.85.24a39.93,39.93,0,0,0,9.56-.82l5.32-1.11a22.26,22.26,0,0,1,6.33-.4l2.12.17a14.52,14.52,0,0,0,2.87-.05l30.65-3.63q4.49-.53,9-.7l44.54-1.63a47,47,0,0,0,9.09-1.23l3.26-.77a6.84,6.84,0,0,0,4.61-3.73h0a20.64,20.64,0,0,0,1.6-12.82m-24.06-11.69-.5,3.2a7.93,7.93,0,0,0-.07,1.86l.28,3.4a7.88,7.88,0,0,1-.46,3.39l-.31.82a2.57,2.57,0,0,1-2.2,1.67l-10,.81a268.12,268.12,0,0,1-27.63.81,268.09,268.09,0,0,0-29,.93l-5.69.49a269.64,269.64,0,0,1-32.48.85,1.76,1.76,0,0,1-.45-.08l-1.54-.47a11.56,11.56,0,0,0-4.78-.43l-2.45.29a1.83,1.83,0,0,1-2-2.08,6.83,6.83,0,0,0-.12-2.56l-.13-.56a6.81,6.81,0,0,1-.12-2.53l.31-2.22a55.64,55.64,0,0,0,.51-9.4l0-1.55a1.39,1.39,0,0,1,1-1.39,26,26,0,0,1,7.11-.87l25.08.43q31.56.55,63.08-1.92l18.17.18a4.28,4.28,0,0,1,3.9,2.62,7.88,7.88,0,0,1,.53,4.27" transform="translate(-1261.34 -416)"/><path class="cls-1" d="M1337.17,524.73h0a154.19,154.19,0,0,0,.35-16.2l-.41-13.28.64-31.57a4.44,4.44,0,0,0-.3-1.7,1.93,1.93,0,0,0-1.61-1c-.83,0-1.94-.08-2.56-.08H1320.5l-8.67-.21q-9.3-.22-18.59.33l-17.67,1.05-6.06.26a6.77,6.77,0,0,0-2.53.61l-2.15,1a3.54,3.54,0,0,0-2,2.75,63,63,0,0,0-1.13,8.54l.08.93a42.61,42.61,0,0,1,0,7.78,40.27,40.27,0,0,0,0,7.84l.24,2.45a40.08,40.08,0,0,1,.12,6.53l-.6,9.46a35.26,35.26,0,0,0,0,5.12l.39,4.79a141.21,141.21,0,0,1-.34,26.78,26.64,26.64,0,0,0-.08,4.92l.13,1.69a2.29,2.29,0,0,0,1.42,1.95l.86.35a9.86,9.86,0,0,0,3.7.72h5.54a12.36,12.36,0,0,0,4-.67l.83-.29a2.45,2.45,0,0,0,1.41-1.25l.55-1.12a7.89,7.89,0,0,0,.77-4l-.61-8a41.32,41.32,0,0,1,.16-7.87l.55-4.74a1.87,1.87,0,0,1,1.67-1.65l4.34-.43a19.6,19.6,0,0,1,3.31,0l7.51.52a62.59,62.59,0,0,0,9.26,0l6.61-.52a4.12,4.12,0,0,1,1.84.28.76.76,0,0,1,.48.69l.2,6.95q.22,7.66,0,15.33l-.21,8.23a2.57,2.57,0,0,0,.72,1.84l1.85,1.93a2.57,2.57,0,0,0,2.34.74l1.83-.36a21.38,21.38,0,0,1,6.75-.23l.93.12a6,6,0,0,0,4.5-1.28l.65-.53a5.14,5.14,0,0,0,1.91-4.12l-.27-11.16.48-10.55a43.26,43.26,0,0,0-.37-8,7,7,0,0,1,0-1.49M1317,479.79l-.48,3.48a46.2,46.2,0,0,0-.05,12.18,20.51,20.51,0,0,1,.09,4.45l-.8,8.85a1.71,1.71,0,0,1-1.76,1.56l-9.54-.3q-2.4-.08-4.78-.31l-3.94-.39a46.25,46.25,0,0,0-7.61-.12l-5,.33a1.71,1.71,0,0,1-1.82-1.76l.12-3.81a37.58,37.58,0,0,0-.41-6.83,37.71,37.71,0,0,1-.42-6.37l.19-10a1.63,1.63,0,0,1,1.86-1.58,23.46,23.46,0,0,0,6.9,0l7.6-1.19a42.8,42.8,0,0,1,9-.44,6.21,6.21,0,0,0,.9,0l8.09-.69a1.71,1.71,0,0,1,1.8,1.28,3.64,3.64,0,0,1,0,1.68" transform="translate(-1261.34 -416)"/><path class="cls-1" d="M1490.06,417.94v-1a.27.27,0,0,1,.3-.3h6.83a.26.26,0,0,1,.2.09.31.31,0,0,1,.08.21v1q0,.3-.28.3h-2.54v6.2a.27.27,0,0,1-.3.3h-1.17a.27.27,0,0,1-.3-.3v-6.2h-2.52A.27.27,0,0,1,1490.06,417.94Zm11-1,1.84,4.05,1.86-4.05q.16-.3.4-.3h2a.27.27,0,0,1,.3.3v7.48c0,.19-.1.28-.3.28h-1.17q-.28,0-.28-.3v-5.69l-1.89,4a.45.45,0,0,1-.42.3h-1a.48.48,0,0,1-.42-.3l-1.86-4v5.69a.27.27,0,0,1-.3.3h-1.17q-.3,0-.3-.28V417a.27.27,0,0,1,.3-.3h2.05A.45.45,0,0,1,1501,417Z" transform="translate(-1261.34 -416)"/><path class="cls-1" d="M1268.39,615.59q-.27.84-1,.84h-5.13a.91.91,0,0,1-.84-.44,1.23,1.23,0,0,1,0-1.12l8.17-24.1a1.18,1.18,0,0,1,1.18-1h7.72a1.18,1.18,0,0,1,1.18,1l8.17,24.1a1.27,1.27,0,0,1,0,1.14,1,1,0,0,1-.87.42h-5.44a1,1,0,0,1-1-.84l-1.44-4.75h-9.35Zm3.23-10.45h5.78l-2.89-9.43Z" transform="translate(-1261.34 -416)"/><path class="cls-1" d="M1299.83,597.27h.49q1,0,1,1.14v4.67a1,1,0,0,1-1.18,1.18h-1.1a3.15,3.15,0,0,0-2.38.78,3.4,3.4,0,0,0-.74,2.41v8.17a.7.7,0,0,1-.29.57,1,1,0,0,1-.63.23h-4.79a.85.85,0,0,1-.87-.87V598.49a.85.85,0,0,1,.87-.87h4.52a1,1,0,0,1,.63.23.7.7,0,0,1,.29.57v1.06A4.84,4.84,0,0,1,1299.83,597.27Z" transform="translate(-1261.34 -416)"/><path class="cls-1" d="M1309.22,606.51v9.12a.7.7,0,0,1-.29.57,1,1,0,0,1-.63.23h-4.79a.85.85,0,0,1-.87-.87V598.49a.85.85,0,0,1,.87-.87h4.79a1,1,0,0,1,.63.23.7.7,0,0,1,.29.57v.68a7.41,7.41,0,0,1,5.36-2.05,6.5,6.5,0,0,1,5.59,2.58,8.3,8.3,0,0,1,6.27-2.58,7.78,7.78,0,0,1,6.14,2.38,8,8,0,0,1,2.11,5.49v10.72a.7.7,0,0,1-.29.57,1,1,0,0,1-.63.23H1329a1,1,0,0,1-.63-.23.7.7,0,0,1-.29-.57v-9.12a3.77,3.77,0,0,0-.76-2.43,2.7,2.7,0,0,0-2.24-1,2.9,2.9,0,0,0-2.32,1,3.56,3.56,0,0,0-.84,2.41v9.12a.7.7,0,0,1-.29.57,1,1,0,0,1-.63.23h-4.75a1,1,0,0,1-.63-.23.7.7,0,0,1-.29-.57v-9.12a3.77,3.77,0,0,0-.76-2.43,2.7,2.7,0,0,0-2.24-1,2.9,2.9,0,0,0-2.32,1A3.56,3.56,0,0,0,1309.22,606.51Z" transform="translate(-1261.34 -416)"/><path class="cls-1" d="M1339.1,614.21a9.76,9.76,0,0,1-2.81-7.24,9.57,9.57,0,0,1,2.81-7.18,9.17,9.17,0,0,1,6.61-2.74q3.46,0,4.83,2v-.57a.82.82,0,0,1,.27-.63.87.87,0,0,1,.61-.25h4.75a.85.85,0,0,1,.87.87v17.07a.85.85,0,0,1-.87.87h-4.75a.85.85,0,0,1-.87-.87V615a4.15,4.15,0,0,1-1.92,1.46,7.54,7.54,0,0,1-2.95.55A9,9,0,0,1,1339.1,614.21Zm4.9-9.9a3.95,3.95,0,0,0,0,5.47,3.76,3.76,0,0,0,5.4,0,3.95,3.95,0,0,0,0-5.47,3.76,3.76,0,0,0-5.4,0Z" transform="translate(-1261.34 -416)"/><path class="cls-1" d="M1368.15,610.69v-7.64h-2.32a.82.82,0,0,1-.63-.27.91.91,0,0,1-.25-.65v-3.65a.85.85,0,0,1,.87-.87h2.32V593a.82.82,0,0,1,.27-.63.92.92,0,0,1,.65-.25h4.79a.85.85,0,0,1,.87.87v4.64h5.09a.92.92,0,0,1,.65.25.82.82,0,0,1,.27.63v3.65a.91.91,0,0,1-.91.91h-5.09v6q0,1.75,1.48,1.75a2.9,2.9,0,0,0,1.52-.53q1.14-.72,1.71.19l1.63,2.62a1.12,1.12,0,0,1-.11,1.56,6,6,0,0,1-2.57,1.69,10,10,0,0,1-3.44.59,7.55,7.55,0,0,1-4.83-1.56A5.59,5.59,0,0,1,1368.15,610.69Z" transform="translate(-1261.34 -416)"/><path class="cls-1" d="M1389,598.41V608q0,3.46,3.08,3.46a2.87,2.87,0,0,0,2.28-.91,3.56,3.56,0,0,0,.8-2.43v-9.69a.7.7,0,0,1,.28-.57,1,1,0,0,1,.63-.23h4.79a.85.85,0,0,1,.87.87v17.07a.85.85,0,0,1-.87.87h-4.79a1,1,0,0,1-.63-.23.7.7,0,0,1-.28-.57v-.68a8,8,0,0,1-2.19,1.54,8.35,8.35,0,0,1-8.49-1.65,8,8,0,0,1-2.05-5.74V598.41a.7.7,0,0,1,.29-.57,1,1,0,0,1,.63-.23h4.75a1,1,0,0,1,.63.23A.7.7,0,0,1,1389,598.41Z" transform="translate(-1261.34 -416)"/><path class="cls-1" d="M1417.08,615.52a.91.91,0,0,1-.91.91h-5a.92.92,0,0,1-.68-.27.88.88,0,0,1-.27-.65V590.74a.85.85,0,0,1,.28-.65,1,1,0,0,1,.67-.27h11.17a8.64,8.64,0,0,1,6.59,2.64,9,9,0,0,1,2.49,6.44,9.24,9.24,0,0,1-2.57,6.44,8.61,8.61,0,0,1-6.52,2.6h-5.28Zm0-13.53h4.11a3.17,3.17,0,0,0,2.24-.91,3.22,3.22,0,0,0,0-4.41,3,3,0,0,0-2.24-.87h-4.11Z" transform="translate(-1261.34 -416)"/><path class="cls-1" d="M1440.85,597a9.17,9.17,0,0,1,7,2.85,9.31,9.31,0,0,1,2.66,6.54v1.18q0,1-1.06,1h-12a3,3,0,0,0,1.2,2.09,3.66,3.66,0,0,0,2.26.76,4.35,4.35,0,0,0,3.34-1.44.72.72,0,0,1,1-.23l3.88,2.36q.68.42.15,1.18-2.66,3.69-8.51,3.69a9.85,9.85,0,0,1-7.28-2.83,9.52,9.52,0,0,1-2.83-7,9.9,9.9,0,0,1,2.85-7.18A9.7,9.7,0,0,1,1440.85,597Zm3.23,7.56a3.21,3.21,0,0,0-1.27-1.77,3.42,3.42,0,0,0-1.92-.59,3.35,3.35,0,0,0-1.92.61,3.5,3.5,0,0,0-1.31,1.75Z" transform="translate(-1261.34 -416)"/><path class="cls-1" d="M1454.71,614.21a9.76,9.76,0,0,1-2.81-7.24,9.64,9.64,0,0,1,2.77-7.18,9,9,0,0,1,6.5-2.74,7.74,7.74,0,0,1,3,.53,4.6,4.6,0,0,1,1.94,1.37V590.7a.82.82,0,0,1,.27-.63.87.87,0,0,1,.61-.25h4.83a.85.85,0,0,1,.87.87v24.86a.85.85,0,0,1-.87.87H1467a.85.85,0,0,1-.87-.87V615a5.9,5.9,0,0,1-4.87,2A9,9,0,0,1,1454.71,614.21Zm4.9-9.9a3.95,3.95,0,0,0,0,5.47,3.76,3.76,0,0,0,5.4,0,3.95,3.95,0,0,0,0-5.47,3.76,3.76,0,0,0-5.4,0Z" transform="translate(-1261.34 -416)"/><path class="cls-1" d="M1477.2,614.21a9.76,9.76,0,0,1-2.81-7.24,9.57,9.57,0,0,1,2.81-7.18,9.17,9.17,0,0,1,6.61-2.74q3.46,0,4.83,2v-.57a.82.82,0,0,1,.27-.63.87.87,0,0,1,.61-.25h4.75a.85.85,0,0,1,.87.87v17.07a.85.85,0,0,1-.87.87h-4.75a.85.85,0,0,1-.87-.87V615a4.15,4.15,0,0,1-1.92,1.46,7.54,7.54,0,0,1-2.95.55A9,9,0,0,1,1477.2,614.21Zm4.9-9.9a3.95,3.95,0,0,0,0,5.47,3.76,3.76,0,0,0,5.4,0,3.95,3.95,0,0,0,0-5.47,3.76,3.76,0,0,0-5.4,0Z" transform="translate(-1261.34 -416)"/><path class="cls-1" d="M1502.08,616.43a4.43,4.43,0,0,1-5.09-4.79v-20.9a.91.91,0,0,1,.91-.91h4.79a.82.82,0,0,1,.63.27.92.92,0,0,1,.25.65v19.5a.76.76,0,0,0,.21.53.67.67,0,0,0,.51.23h1.29a.74.74,0,0,1,.84.84v3.46q0,1.14-1.22,1.14Z" transform="translate(-1261.34 -416)"/></svg>